<svg xmlns="http://www.w3.org/2000/svg" viewBox="0 0 79.6 26.28"><defs><style>.cls-1{fill:#020202;}</style></defs><g id="Layer_2" data-name="Layer 2"><g id="Layer_1-2" data-name="Layer 1"><path class="cls-1" d="M31.93,23.14c-.07-.61-.64-.55-1-.79-1.17-.83-2.72-1.78-2.23-3.37s2.32-.81,3.53-.84a18.38,18.38,0,0,0,6.93-1.08c-2.41-3.9-6.45-5.82-10.27-7.91-5.49-3-11.73-3.83-17.66-5.55C7.76,2.59,4.07,2.22,0,.27,6.67-.58,12.42.81,18.21,1c1.92.07,3.82.49,5.74.69,6.11.65,11.11,3.55,15.55,7.58,2.72,2.47,5.69,3.78,9.41,2.26C58.62,7.56,68.66,7.11,79.6,9c-3.19,2.15-6.38,2.34-9.39,2.53-4.45.28-8.83.95-13.21,1.58-2,.29-4.19.3-4.13,3.54,0,1.69-2.57,1.86-3.92,3.11-.05,1.11,2.07.75,1.7,2s-1.67.73-2.49,1.19c-2.26,1.23-5.12.65-7.3,2.63-.66.6-3-.25-4.35-.89-2.14-1-3.39-.86-3.73,1.68C31.65,25.46,31.69,24.32,31.93,23.14Z"/></g></g></svg>